<?xml version="1.0" encoding="UTF-8"?>
<svg version="1.1" xmlns="http://www.w3.org/2000/svg" width="822" height="796">
<path d="M0 0 C271.26 0 542.52 0 822 0 C822 262.68 822 525.36 822 796 C550.74 796 279.48 796 0 796 C0 533.32 0 270.64 0 0 Z " fill="#000D24" transform="translate(0,0)"/>
<path d="M0 0 C0.69322861 -0.00282738 1.38645721 -0.00565475 2.10069275 -0.00856781 C5.78344075 -0.02345749 9.46615074 -0.03274627 13.14892578 -0.03710938 C16.1252902 -0.04145408 19.1013582 -0.05520328 22.07763672 -0.078125 C40.70136722 -0.21868014 58.82718757 0.44505315 77.33232117 2.83982849 C80.72724739 3.27658342 84.12634922 3.66599313 87.52783203 4.04766846 C92.95417184 4.65702253 97.90983315 5.69028445 103.15625 7.203125 C106.54533756 7.90881758 109.95867617 8.47816384 113.37109375 9.05859375 C116.20035108 9.56169305 118.85254364 10.0790441 121.51904297 11.16845703 C124.36216983 12.28391451 127.10531285 12.91490121 130.09375 13.5390625 C137.29704424 15.15757546 144.19236332 17.39208144 151.15625 19.828125 C152.1011731 20.15725891 152.1011731 20.15725891 153.06518555 20.49304199 C164.66920768 24.54620182 175.99951061 29.03906393 187.15625 34.203125 C187.73536133 34.47012207 188.31447266 34.73711914 188.91113281 35.01220703 C192.84594926 36.82819746 196.77091412 38.66385122 200.68676758 40.52038574 C201.9860038 41.13569899 203.28659953 41.74815088 204.58862305 42.35754395 C206.4185134 43.21682256 208.24065654 44.0925395 210.0625 44.96875 C211.11759766 45.47180664 212.17269531 45.97486328 213.25976562 46.49316406 C217.48119054 48.98531343 220.58511484 51.48971953 222.15625 56.203125 C222.28125 59.828125 222.28125 59.828125 222.15625 63.203125 C219.9447325 65.4146425 215.46104075 64.45268214 212.48095703 64.45410156 C205.8854947 64.35317401 199.68991268 63.12726641 193.26269531 61.67382812 C157.34528672 53.64777762 119.72028963 51.14276772 83.15625 56.203125 C81.77252197 56.3885083 81.77252197 56.3885083 80.36083984 56.57763672 C25.93526658 64.10758774 -23.56034452 86.0135113 -64.84375 122.203125 C-65.58753906 122.83605469 -66.33132813 123.46898437 -67.09765625 124.12109375 C-71.64119543 128.00666444 -75.82455742 132.16393275 -79.9609375 136.48046875 C-81.84375 138.203125 -81.84375 138.203125 -83.84375 138.203125 C-84.24787109 139.10417969 -84.24787109 139.10417969 -84.66015625 140.0234375 C-85.85178044 142.21791374 -86.94442082 143.41644579 -88.78125 145.078125 C-98.54216699 154.5763258 -109.73530069 167.98622639 -115.84375 180.203125 C-116.50375 180.203125 -117.16375 180.203125 -117.84375 180.203125 C-117.91464844 180.86699219 -117.98554688 181.53085938 -118.05859375 182.21484375 C-119.13047426 186.29438896 -121.19988178 189.44908322 -123.40625 193.015625 C-130.59419824 204.95714434 -136.84978383 216.79763459 -140.84375 230.203125 C-141.31680837 231.6426467 -141.79568503 233.08027361 -142.28125 234.515625 C-142.63703125 235.60230469 -142.63703125 235.60230469 -143 236.7109375 C-143.63657361 238.59118731 -144.30963978 240.45913865 -145 242.3203125 C-152.74727699 263.90876118 -153.46624291 285.35597848 -153.29327393 308.01739502 C-153.27705248 311.05047573 -153.28728602 314.08325206 -153.29739285 317.11634159 C-153.30434381 320.0580884 -153.29657489 322.99965062 -153.28413582 325.94137383 C-153.27964666 327.33556855 -153.27926215 328.72978318 -153.28320122 330.12397957 C-153.28611869 332.05802864 -153.26742747 333.99207369 -153.24780273 335.92602539 C-153.23969826 337.56856041 -153.23969826 337.56856041 -153.23143005 339.24427795 C-152.78296876 342.66701884 -152.04214225 344.5412633 -149.84375 347.203125 C-147.60273211 347.972729 -147.60273211 347.972729 -145.01904297 347.89257812 C-143.52934494 347.93227722 -143.52934494 347.93227722 -142.009552 347.97277832 C-140.37673782 347.97851868 -140.37673782 347.97851868 -138.7109375 347.984375 C-137.56253387 348.00786011 -136.41413025 348.03134521 -135.23092651 348.05554199 C-131.43521268 348.12762113 -127.63994495 348.16516186 -123.84375 348.203125 C-121.24377358 348.24763758 -118.64383703 348.29453814 -116.04394531 348.34375 C-108.41568519 348.48137475 -100.78727378 348.58164669 -93.15837097 348.67564774 C-86.43622038 348.76000312 -79.71420556 348.85498865 -72.9921875 348.94921875 C-72.25604721 348.95945509 -71.51990692 348.96969143 -70.76145935 348.98023796 C-57.03725746 349.17215699 -43.31544594 349.43896691 -29.59375 349.765625 C-28.65952209 349.78786133 -27.72529419 349.81009766 -26.76275635 349.83300781 C-21.78964766 349.95232413 -16.81665377 350.07556206 -11.84375 350.203125 C-12.84555142 359.09843071 -12.84555142 359.09843071 -16.296875 362.91796875 C-17.45374194 363.71777368 -18.64036254 364.47519118 -19.84375 365.203125 C-20.62041016 365.69570801 -21.39707031 366.18829102 -22.19726562 366.69580078 C-24.97488654 368.42330778 -27.78051255 370.09680252 -30.59375 371.765625 C-78.8899435 399.58533759 -78.8899435 399.58533759 -116.21875 439.640625 C-118.14709777 447.54685086 -116.16286693 454.25796057 -112.14453125 461.09375 C-105.31068369 471.56605078 -97.39404408 481.09744928 -88.84375 490.203125 C-88.35165039 490.72922363 -87.85955078 491.25532227 -87.35253906 491.79736328 C-78.30605581 501.38951622 -68.57047869 509.54947277 -57.84375 517.203125 C-57.20824219 517.65671387 -56.57273437 518.11030273 -55.91796875 518.57763672 C-5.07827183 554.44638078 57.40410792 569.28406457 118.97558594 559.75537109 C128.49889754 558.10187625 137.83377837 555.73353276 147.15625 553.203125 C148.46601807 552.85725342 148.46601807 552.85725342 149.80224609 552.50439453 C172.08727821 546.56315751 192.50438351 537.18991089 212.15625 525.203125 C213.24292969 524.55472656 214.32960938 523.90632812 215.44921875 523.23828125 C242.09388299 506.89775845 268.35180758 483.018797 286.86621094 457.9375 C288.17083755 456.18351297 289.50745384 454.45823543 290.8515625 452.734375 C301.90682993 438.3749623 310.21192121 422.47021276 318.09375 406.203125 C318.62532715 405.10645508 319.1569043 404.00978516 319.70458984 402.87988281 C323.23970386 395.45132837 326.31472448 387.92180545 329.15625 380.203125 C329.67215698 378.81335449 329.67215698 378.81335449 330.19848633 377.39550781 C336.8165597 359.36023276 342.12922625 341.08815032 345.43359375 322.15234375 C346.73666305 314.78345839 348.49311349 307.49728714 350.15625 300.203125 C353.45625 299.543125 356.75625 298.883125 360.15625 298.203125 C379.12156282 328.94001129 368.80468731 378.31717993 360.98828125 411.6328125 C360.26059227 414.75538398 359.67431004 417.85320633 359.15625 421.015625 C358.22719907 426.30469566 356.74346891 431.38908536 355.22265625 436.53515625 C354.15090865 440.22149691 353.17810603 443.92360589 352.21875 447.640625 C349.27110198 458.76077163 345.59637102 469.58766325 341.15625 480.203125 C340.78886719 481.110625 340.42148437 482.018125 340.04296875 482.953125 C334.71466677 496.00486144 328.52714859 508.63560771 322.15625 521.203125 C321.49625 521.203125 320.83625 521.203125 320.15625 521.203125 C320.03797852 521.94087158 319.91970703 522.67861816 319.79785156 523.4387207 C319.16062048 526.18429434 318.3234299 528.02526804 316.890625 530.43359375 C316.41955322 531.22733398 315.94848145 532.02107422 315.46313477 532.83886719 C314.94936279 533.68094727 314.43559082 534.52302734 313.90625 535.390625 C313.3712085 536.27266602 312.83616699 537.15470703 312.28491211 538.06347656 C300.95240726 556.48147398 287.54117737 573.60093526 272.78125 589.390625 C270.13283585 592.22821159 267.5513022 595.11812741 264.96875 598.015625 C261.59582307 601.72743313 258.15600276 605.13027079 254.31640625 608.3515625 C251.70094029 610.59339047 249.22340835 612.96318228 246.71875 615.328125 C239.97012911 621.5884231 232.71448991 627.13371442 225.31787109 632.60205078 C223.93017832 633.62989009 222.54723535 634.66419117 221.17041016 635.70654297 C165.69305797 677.66856347 91.41460932 701.48006222 22.15625 701.390625 C21.29119843 701.39002075 20.42614685 701.3894165 19.53488159 701.38879395 C6.6466547 701.36436609 -6.07340218 701.09782045 -18.84375 699.203125 C-20.25769043 698.99381348 -20.25769043 698.99381348 -21.70019531 698.78027344 C-28.76998776 697.70577449 -35.80977789 696.48992883 -42.84375 695.203125 C-44.18880615 694.95925049 -44.18880615 694.95925049 -45.56103516 694.71044922 C-62.52916825 691.595664 -78.78495364 686.92001513 -95.21875 681.703125 C-96.96575195 681.15168823 -96.96575195 681.15168823 -98.74804688 680.58911133 C-106.2913498 678.16072162 -113.57660494 675.35873297 -120.84375 672.203125 C-121.60880859 671.87844238 -122.37386719 671.55375977 -123.16210938 671.21923828 C-148.09058734 660.61832849 -171.81124676 647.36892848 -192.84375 630.203125 C-194.23207031 629.10097656 -194.23207031 629.10097656 -195.6484375 627.9765625 C-201.00627641 623.68118457 -206.1276719 619.17452278 -211.15258789 614.49804688 C-214.95677372 610.97129405 -218.87737442 607.6079053 -222.84375 604.265625 C-233.24155815 595.43891423 -242.38457529 585.92281866 -250.84375 575.203125 C-251.75185392 574.09466961 -252.6621201 572.98798313 -253.57421875 571.8828125 C-267.37631333 555.07141256 -279.17110717 537.13982613 -289.84375 518.203125 C-290.51615723 517.02314941 -290.51615723 517.02314941 -291.20214844 515.81933594 C-310.7240319 481.31244881 -322.11862724 442.28979525 -327.84375 403.203125 C-328.02752197 401.9560376 -328.21129395 400.7089502 -328.40063477 399.42407227 C-330.07821698 386.36272424 -330.1483184 373.37395549 -330.10449219 360.21850586 C-330.09379842 356.40787742 -330.10442902 352.59772333 -330.1171875 348.78710938 C-330.12601555 334.47783112 -329.62404038 320.40541298 -327.84375 306.203125 C-327.75871216 305.51642731 -327.67367432 304.82972961 -327.58605957 304.1222229 C-327.06461387 299.99377045 -326.46949283 295.87939526 -325.84375 291.765625 C-325.59625 290.05149414 -325.59625 290.05149414 -325.34375 288.30273438 C-324.55614052 283.0325194 -323.54174292 278.25908276 -321.84375 273.203125 C-321.51708424 271.53512038 -321.22498963 269.85995271 -320.96875 268.1796875 C-319.80076676 261.47283799 -317.87570946 255.06812023 -315.84375 248.578125 C-315.45292236 247.32354492 -315.06209473 246.06896484 -314.65942383 244.77636719 C-310.72390679 232.3227889 -305.97382198 220.21200189 -300.84375 208.203125 C-300.35914307 207.06375488 -300.35914307 207.06375488 -299.86474609 205.90136719 C-293.58708272 191.44508047 -286.32455623 175.86850973 -276.84375 163.203125 C-276.18375 163.203125 -275.52375 163.203125 -274.84375 163.203125 C-274.73144043 162.45925537 -274.61913086 161.71538574 -274.50341797 160.94897461 C-273.8236352 158.11939769 -272.99638275 156.5931396 -271.2890625 154.26953125 C-270.7623999 153.54540039 -270.2357373 152.82126953 -269.69311523 152.07519531 C-269.12407471 151.31303711 -268.55503418 150.55087891 -267.96875 149.765625 C-267.08908569 148.57018066 -267.08908569 148.57018066 -266.19165039 147.35058594 C-246.4217068 120.61984657 -224.49426335 94.34223121 -197.84375 74.203125 C-197.18810059 73.70200195 -196.53245117 73.20087891 -195.85693359 72.68457031 C-185.33399066 64.66334308 -174.62639314 57.24771212 -163.19775391 50.57714844 C-161.58971283 49.63854077 -159.98536631 48.69358217 -158.38427734 47.74316406 C-110.53057331 19.33955599 -56.06106206 0.18107467 0 0 Z " fill="#0076AE" transform="translate(393.84375,45.796875)"/>
<path d="M0 0 C0.70253906 0.60585938 1.40507813 1.21171875 2.12890625 1.8359375 C12.10968563 11.09403814 21.27079097 26.14502837 22 40 C22.05027344 40.88429688 22.10054687 41.76859375 22.15234375 42.6796875 C22.73506384 61.37334802 18.54643182 80.61058949 6 95 C5.2575 95.99 4.515 96.98 3.75 98 C-2.07236692 104.75321555 -9.24155961 109.38976285 -17.125 113.375 C-18.10980347 113.87555908 -18.10980347 113.87555908 -19.11450195 114.38623047 C-34.1362945 121.68054741 -54.12624463 121.30618838 -69.84375 116.26171875 C-78.51663537 112.79471136 -85.94032433 108.09402687 -93 102 C-93.66644531 101.42894531 -94.33289063 100.85789062 -95.01953125 100.26953125 C-106.1714289 89.95347603 -114.56730256 75.37613832 -115.4375 60.12109375 C-116.14813849 37.13036322 -111.09361288 18.40354005 -95.2265625 1.16796875 C-69.55573432 -25.05350257 -26.35756627 -22.8118969 0 0 Z " fill="#0076AE" transform="translate(515,260)"/>
<path d="M0 0 C-2.11494766 5.15868186 -6.20104683 7.47546926 -11 10 C-13.44721332 10.68966921 -15.44137343 10.89112227 -18 11 C-8.75812065 -2.50232019 -8.75812065 -2.50232019 0 0 Z " fill="#0082BD" transform="translate(626,563)"/>
</svg>
